<?xml version="1.0" encoding="UTF-8" ?>
<!DOCTYPE svg PUBLIC "-//W3C//DTD SVG 1.1//EN" "http://www.w3.org/Graphics/SVG/1.1/DTD/svg11.dtd">
<svg width="48pt" height="49pt" viewBox="0 0 48 49" version="1.1" xmlns="http://www.w3.org/2000/svg">
<g id="#610befff">
<path fill="#610bef" opacity="1.00" d=" M 17.75 1.57 C 26.15 -1.77 34.54 3.04 41.30 7.70 C 45.00 10.34 46.97 14.68 48.00 18.98 L 48.00 28.76 C 47.65 31.94 46.71 35.14 44.75 37.72 C 41.96 41.81 37.26 43.81 33.09 46.16 C 27.77 49.13 21.00 49.30 15.58 46.49 C 12.53 44.92 9.49 43.28 6.68 41.28 C 2.99 38.65 1.03 34.31 0.00 30.02 L 0.00 20.27 C 0.32 17.53 0.99 14.77 2.48 12.42 C 5.84 6.87 12.15 4.26 17.75 1.57 M 20.54 10.73 C 20.69 15.54 23.22 20.21 27.64 22.35 C 30.02 23.32 30.75 25.84 31.24 28.13 C 33.27 28.24 35.29 28.33 37.32 28.43 C 37.17 23.95 35.15 19.25 30.93 17.22 C 28.36 16.19 26.96 13.68 26.71 11.01 C 24.65 10.90 22.60 10.81 20.54 10.73 M 10.54 20.73 C 10.59 25.30 12.78 29.96 16.99 32.06 C 19.51 33.17 20.90 35.53 21.18 38.21 C 23.21 38.31 25.24 38.41 27.27 38.50 C 27.03 35.64 26.36 32.74 24.59 30.41 C 23.07 28.19 20.39 27.33 18.43 25.59 C 17.20 24.41 17.13 22.59 16.57 21.07 C 14.56 20.95 12.55 20.84 10.54 20.73 Z" />
</g>
</svg>
