<svg width="24" height="24" viewBox="0 0 24 24" fill="none" xmlns="http://www.w3.org/2000/svg">
<path d="M13 3C13 2.44772 13.4477 2 14 2H15.6876C15.9865 2 16.2697 2.13365 16.4596 2.36436L18.772 5.1727C18.9194 5.35173 19 5.57644 19 5.80835V9C19 9.55228 18.5523 10 18 10H14C13.4477 10 13 9.55229 13 9V3Z" stroke="#14142B" stroke-width="2"/>
<path d="M13 16C13 15.4477 13.4477 15 14 15H15.6876C15.9865 15 16.2697 15.1337 16.4596 15.3644L18.772 18.1727C18.9194 18.3517 19 18.5764 19 18.8083V22C19 22.5523 18.5523 23 18 23H14C13.4477 23 13 22.5523 13 22V16Z" stroke="#14142B" stroke-width="2"/>
<path d="M4 1V5.5M8.5 18.5H4V5.5M4 5.5H8.5" stroke="#14142B" stroke-width="2" stroke-linecap="round" stroke-linejoin="round"/>
</svg>
