<svg width="24" height="24" viewBox="0 0 24 24" fill="none" xmlns="http://www.w3.org/2000/svg">
<path d="M1 5C1 3.89543 1.89543 3 3 3H21C22.1046 3 23 3.89543 23 5V19C23 20.1046 22.1046 21 21 21H3C1.89543 21 1 20.1046 1 19V5Z" stroke="#14142B" stroke-width="2" stroke-linejoin="round"/>
<path d="M5.5 21L16.2221 9.3844C16.9399 8.60681 18.1391 8.52294 18.9582 9.19305L23 12.5" stroke="#14142B" stroke-width="2" stroke-linecap="round" stroke-linejoin="round"/>
<path d="M1 10L8.75 17.75" stroke="#14142B" stroke-width="2"/>
<path d="M12.5 13C12.5 12 10.7091 10 8.5 10C6.29086 10 4.5 12 4.5 13" stroke="#14142B" stroke-width="2" stroke-linecap="round" stroke-linejoin="round"/>
</svg>
